<mxfile host="app.diagrams.net" agent="Mozilla/5.0 (Windows NT 10.0; Win64; x64) AppleWebKit/537.36 (KHTML, like Gecko) Chrome/126.0.0.0 Safari/537.36 Edg/126.0.0.0" version="24.7.5">
  <diagram id="C5RBs43oDa-KdzZeNtuy" name="Page-1">
    <mxGraphModel dx="2728" dy="1057" grid="1" gridSize="10" guides="1" tooltips="1" connect="1" arrows="1" fold="1" page="1" pageScale="1" pageWidth="827" pageHeight="1169" math="0" shadow="0">
      <root>
        <mxCell id="WIyWlLk6GJQsqaUBKTNV-0" />
        <mxCell id="WIyWlLk6GJQsqaUBKTNV-1" parent="WIyWlLk6GJQsqaUBKTNV-0" />
        <mxCell id="dtS3Ds4gzJAj2oVXJS53-1" style="edgeStyle=orthogonalEdgeStyle;rounded=0;orthogonalLoop=1;jettySize=auto;html=1;entryX=0.5;entryY=0;entryDx=0;entryDy=0;" edge="1" parent="WIyWlLk6GJQsqaUBKTNV-1" source="WIyWlLk6GJQsqaUBKTNV-3" target="dtS3Ds4gzJAj2oVXJS53-0">
          <mxGeometry relative="1" as="geometry" />
        </mxCell>
        <mxCell id="WIyWlLk6GJQsqaUBKTNV-3" value="otaSale&lt;div&gt;search()&lt;/div&gt;" style="rounded=1;whiteSpace=wrap;html=1;fontSize=12;glass=0;strokeWidth=1;shadow=0;" parent="WIyWlLk6GJQsqaUBKTNV-1" vertex="1">
          <mxGeometry x="160" y="150" width="120" height="40" as="geometry" />
        </mxCell>
        <mxCell id="dtS3Ds4gzJAj2oVXJS53-3" value="" style="edgeStyle=orthogonalEdgeStyle;rounded=0;orthogonalLoop=1;jettySize=auto;html=1;" edge="1" parent="WIyWlLk6GJQsqaUBKTNV-1" source="dtS3Ds4gzJAj2oVXJS53-0" target="dtS3Ds4gzJAj2oVXJS53-9">
          <mxGeometry relative="1" as="geometry">
            <mxPoint x="240" y="300" as="targetPoint" />
          </mxGeometry>
        </mxCell>
        <mxCell id="dtS3Ds4gzJAj2oVXJS53-0" value="getData()&lt;div&gt;取报价信息&lt;/div&gt;" style="rounded=1;whiteSpace=wrap;html=1;" vertex="1" parent="WIyWlLk6GJQsqaUBKTNV-1">
          <mxGeometry x="160" y="260" width="120" height="60" as="geometry" />
        </mxCell>
        <mxCell id="dtS3Ds4gzJAj2oVXJS53-8" value="" style="edgeStyle=orthogonalEdgeStyle;rounded=0;orthogonalLoop=1;jettySize=auto;html=1;entryX=0.5;entryY=0;entryDx=0;entryDy=0;fillColor=#e1d5e7;strokeColor=#9673a6;" edge="1" parent="WIyWlLk6GJQsqaUBKTNV-1" source="dtS3Ds4gzJAj2oVXJS53-5" target="dtS3Ds4gzJAj2oVXJS53-12">
          <mxGeometry relative="1" as="geometry">
            <mxPoint x="220" y="830" as="targetPoint" />
          </mxGeometry>
        </mxCell>
        <mxCell id="dtS3Ds4gzJAj2oVXJS53-54" style="edgeStyle=orthogonalEdgeStyle;rounded=0;orthogonalLoop=1;jettySize=auto;html=1;exitX=0;exitY=0.5;exitDx=0;exitDy=0;entryX=0;entryY=0.5;entryDx=0;entryDy=0;" edge="1" parent="WIyWlLk6GJQsqaUBKTNV-1" source="dtS3Ds4gzJAj2oVXJS53-9" target="dtS3Ds4gzJAj2oVXJS53-83">
          <mxGeometry relative="1" as="geometry">
            <mxPoint x="50" y="1920" as="targetPoint" />
            <Array as="points">
              <mxPoint x="-50" y="470" />
              <mxPoint x="-50" y="1800" />
            </Array>
          </mxGeometry>
        </mxCell>
        <mxCell id="dtS3Ds4gzJAj2oVXJS53-55" value="循环结束" style="edgeLabel;html=1;align=center;verticalAlign=middle;resizable=0;points=[];" vertex="1" connectable="0" parent="dtS3Ds4gzJAj2oVXJS53-54">
          <mxGeometry x="-0.1063" y="3" relative="1" as="geometry">
            <mxPoint as="offset" />
          </mxGeometry>
        </mxCell>
        <mxCell id="dtS3Ds4gzJAj2oVXJS53-5" value="根据当前产品政策key拼接，查询出全部符合条件的政策" style="whiteSpace=wrap;html=1;rounded=1;" vertex="1" parent="WIyWlLk6GJQsqaUBKTNV-1">
          <mxGeometry x="160" y="710" width="120" height="60" as="geometry" />
        </mxCell>
        <mxCell id="dtS3Ds4gzJAj2oVXJS53-67" value="" style="edgeStyle=orthogonalEdgeStyle;rounded=0;orthogonalLoop=1;jettySize=auto;html=1;fillColor=#ffe6cc;strokeColor=#d79b00;" edge="1" parent="WIyWlLk6GJQsqaUBKTNV-1" source="dtS3Ds4gzJAj2oVXJS53-9" target="dtS3Ds4gzJAj2oVXJS53-66">
          <mxGeometry relative="1" as="geometry" />
        </mxCell>
        <mxCell id="dtS3Ds4gzJAj2oVXJS53-9" value="有航班" style="rhombus;whiteSpace=wrap;html=1;rounded=1;" vertex="1" parent="WIyWlLk6GJQsqaUBKTNV-1">
          <mxGeometry x="180" y="430" width="80" height="80" as="geometry" />
        </mxCell>
        <mxCell id="dtS3Ds4gzJAj2oVXJS53-14" value="" style="edgeStyle=orthogonalEdgeStyle;rounded=0;orthogonalLoop=1;jettySize=auto;html=1;fillColor=#f8cecc;strokeColor=#b85450;" edge="1" parent="WIyWlLk6GJQsqaUBKTNV-1" source="dtS3Ds4gzJAj2oVXJS53-12" target="dtS3Ds4gzJAj2oVXJS53-13">
          <mxGeometry relative="1" as="geometry" />
        </mxCell>
        <mxCell id="dtS3Ds4gzJAj2oVXJS53-30" value="Y" style="edgeLabel;html=1;align=center;verticalAlign=middle;resizable=0;points=[];" vertex="1" connectable="0" parent="dtS3Ds4gzJAj2oVXJS53-14">
          <mxGeometry x="-0.2" relative="1" as="geometry">
            <mxPoint as="offset" />
          </mxGeometry>
        </mxCell>
        <mxCell id="dtS3Ds4gzJAj2oVXJS53-32" value="" style="edgeStyle=orthogonalEdgeStyle;rounded=0;orthogonalLoop=1;jettySize=auto;html=1;" edge="1" parent="WIyWlLk6GJQsqaUBKTNV-1" source="dtS3Ds4gzJAj2oVXJS53-12" target="dtS3Ds4gzJAj2oVXJS53-31">
          <mxGeometry relative="1" as="geometry">
            <Array as="points">
              <mxPoint x="90" y="880" />
              <mxPoint x="90" y="1200" />
            </Array>
          </mxGeometry>
        </mxCell>
        <mxCell id="dtS3Ds4gzJAj2oVXJS53-34" value="循环结束" style="edgeLabel;html=1;align=center;verticalAlign=middle;resizable=0;points=[];" vertex="1" connectable="0" parent="dtS3Ds4gzJAj2oVXJS53-32">
          <mxGeometry x="-0.3042" y="3" relative="1" as="geometry">
            <mxPoint x="-3" y="53" as="offset" />
          </mxGeometry>
        </mxCell>
        <mxCell id="dtS3Ds4gzJAj2oVXJS53-12" value="有政策" style="rhombus;whiteSpace=wrap;html=1;rounded=1;" vertex="1" parent="WIyWlLk6GJQsqaUBKTNV-1">
          <mxGeometry x="180" y="840" width="80" height="80" as="geometry" />
        </mxCell>
        <mxCell id="dtS3Ds4gzJAj2oVXJS53-27" style="edgeStyle=orthogonalEdgeStyle;rounded=0;orthogonalLoop=1;jettySize=auto;html=1;entryX=0.5;entryY=1;entryDx=0;entryDy=0;exitX=0.5;exitY=1;exitDx=0;exitDy=0;fillColor=#f8cecc;strokeColor=#b85450;" edge="1" parent="WIyWlLk6GJQsqaUBKTNV-1" source="dtS3Ds4gzJAj2oVXJS53-13" target="dtS3Ds4gzJAj2oVXJS53-19">
          <mxGeometry relative="1" as="geometry">
            <Array as="points">
              <mxPoint x="220" y="1100" />
              <mxPoint x="380" y="1100" />
              <mxPoint x="380" y="1000" />
            </Array>
          </mxGeometry>
        </mxCell>
        <mxCell id="dtS3Ds4gzJAj2oVXJS53-13" value="匹配政策，记录调价后总价" style="whiteSpace=wrap;html=1;" vertex="1" parent="WIyWlLk6GJQsqaUBKTNV-1">
          <mxGeometry x="160" y="960" width="120" height="60" as="geometry" />
        </mxCell>
        <mxCell id="dtS3Ds4gzJAj2oVXJS53-29" style="edgeStyle=orthogonalEdgeStyle;rounded=0;orthogonalLoop=1;jettySize=auto;html=1;entryX=0.5;entryY=0;entryDx=0;entryDy=0;fillColor=#f8cecc;strokeColor=#b85450;" edge="1" parent="WIyWlLk6GJQsqaUBKTNV-1" source="dtS3Ds4gzJAj2oVXJS53-19" target="dtS3Ds4gzJAj2oVXJS53-12">
          <mxGeometry relative="1" as="geometry">
            <Array as="points">
              <mxPoint x="380" y="820" />
              <mxPoint x="220" y="820" />
            </Array>
          </mxGeometry>
        </mxCell>
        <mxCell id="dtS3Ds4gzJAj2oVXJS53-19" value="循环政策" style="rounded=1;whiteSpace=wrap;html=1;" vertex="1" parent="WIyWlLk6GJQsqaUBKTNV-1">
          <mxGeometry x="330" y="960" width="100" height="40" as="geometry" />
        </mxCell>
        <mxCell id="dtS3Ds4gzJAj2oVXJS53-31" value="结束政策循环&lt;div&gt;取总价最低的政策&lt;/div&gt;" style="whiteSpace=wrap;html=1;rounded=1;" vertex="1" parent="WIyWlLk6GJQsqaUBKTNV-1">
          <mxGeometry x="160" y="1170" width="120" height="60" as="geometry" />
        </mxCell>
        <mxCell id="dtS3Ds4gzJAj2oVXJS53-38" value="" style="edgeStyle=orthogonalEdgeStyle;rounded=0;orthogonalLoop=1;jettySize=auto;html=1;fillColor=#e1d5e7;strokeColor=#9673a6;exitX=0.5;exitY=1;exitDx=0;exitDy=0;" edge="1" parent="WIyWlLk6GJQsqaUBKTNV-1" source="dtS3Ds4gzJAj2oVXJS53-31" target="dtS3Ds4gzJAj2oVXJS53-37">
          <mxGeometry relative="1" as="geometry">
            <mxPoint x="220" y="1370" as="sourcePoint" />
          </mxGeometry>
        </mxCell>
        <mxCell id="dtS3Ds4gzJAj2oVXJS53-56" style="edgeStyle=orthogonalEdgeStyle;rounded=0;orthogonalLoop=1;jettySize=auto;html=1;entryX=0.5;entryY=1;entryDx=0;entryDy=0;fillColor=#ffe6cc;strokeColor=#d79b00;exitX=1;exitY=0.5;exitDx=0;exitDy=0;" edge="1" parent="WIyWlLk6GJQsqaUBKTNV-1" source="dtS3Ds4gzJAj2oVXJS53-81" target="dtS3Ds4gzJAj2oVXJS53-58">
          <mxGeometry relative="1" as="geometry">
            <mxPoint x="510" y="1031" as="targetPoint" />
          </mxGeometry>
        </mxCell>
        <mxCell id="dtS3Ds4gzJAj2oVXJS53-70" value="" style="edgeStyle=orthogonalEdgeStyle;rounded=0;orthogonalLoop=1;jettySize=auto;html=1;fillColor=#e1d5e7;strokeColor=#9673a6;" edge="1" parent="WIyWlLk6GJQsqaUBKTNV-1" source="dtS3Ds4gzJAj2oVXJS53-37" target="dtS3Ds4gzJAj2oVXJS53-69">
          <mxGeometry relative="1" as="geometry" />
        </mxCell>
        <mxCell id="dtS3Ds4gzJAj2oVXJS53-37" value="包装价格、税费" style="whiteSpace=wrap;html=1;rounded=1;" vertex="1" parent="WIyWlLk6GJQsqaUBKTNV-1">
          <mxGeometry x="160" y="1270" width="120" height="60" as="geometry" />
        </mxCell>
        <mxCell id="dtS3Ds4gzJAj2oVXJS53-40" style="edgeStyle=orthogonalEdgeStyle;rounded=0;orthogonalLoop=1;jettySize=auto;html=1;" edge="1" parent="WIyWlLk6GJQsqaUBKTNV-1" source="dtS3Ds4gzJAj2oVXJS53-39" target="WIyWlLk6GJQsqaUBKTNV-3">
          <mxGeometry relative="1" as="geometry" />
        </mxCell>
        <mxCell id="dtS3Ds4gzJAj2oVXJS53-39" value="携程请求" style="ellipse;whiteSpace=wrap;html=1;" vertex="1" parent="WIyWlLk6GJQsqaUBKTNV-1">
          <mxGeometry x="160" y="10" width="120" height="80" as="geometry" />
        </mxCell>
        <mxCell id="dtS3Ds4gzJAj2oVXJS53-49" value="结束" style="ellipse;whiteSpace=wrap;html=1;" vertex="1" parent="WIyWlLk6GJQsqaUBKTNV-1">
          <mxGeometry x="160" y="1970" width="120" height="80" as="geometry" />
        </mxCell>
        <mxCell id="dtS3Ds4gzJAj2oVXJS53-52" style="edgeStyle=orthogonalEdgeStyle;rounded=0;orthogonalLoop=1;jettySize=auto;html=1;" edge="1" parent="WIyWlLk6GJQsqaUBKTNV-1" source="dtS3Ds4gzJAj2oVXJS53-50" target="dtS3Ds4gzJAj2oVXJS53-49">
          <mxGeometry relative="1" as="geometry" />
        </mxCell>
        <mxCell id="dtS3Ds4gzJAj2oVXJS53-50" value="组装平台要求的响应格式" style="whiteSpace=wrap;html=1;rounded=1;" vertex="1" parent="WIyWlLk6GJQsqaUBKTNV-1">
          <mxGeometry x="160" y="1870" width="120" height="60" as="geometry" />
        </mxCell>
        <mxCell id="dtS3Ds4gzJAj2oVXJS53-59" style="edgeStyle=orthogonalEdgeStyle;rounded=0;orthogonalLoop=1;jettySize=auto;html=1;entryX=0.5;entryY=0;entryDx=0;entryDy=0;fillColor=#ffe6cc;strokeColor=#d79b00;" edge="1" parent="WIyWlLk6GJQsqaUBKTNV-1" source="dtS3Ds4gzJAj2oVXJS53-58" target="dtS3Ds4gzJAj2oVXJS53-9">
          <mxGeometry relative="1" as="geometry">
            <Array as="points">
              <mxPoint x="580" y="980" />
              <mxPoint x="580" y="410" />
              <mxPoint x="220" y="410" />
            </Array>
          </mxGeometry>
        </mxCell>
        <mxCell id="dtS3Ds4gzJAj2oVXJS53-58" value="循环航班" style="rounded=1;whiteSpace=wrap;html=1;" vertex="1" parent="WIyWlLk6GJQsqaUBKTNV-1">
          <mxGeometry x="530" y="810" width="100" height="40" as="geometry" />
        </mxCell>
        <mxCell id="dtS3Ds4gzJAj2oVXJS53-76" value="" style="edgeStyle=orthogonalEdgeStyle;rounded=0;orthogonalLoop=1;jettySize=auto;html=1;fillColor=#e1d5e7;strokeColor=#9673a6;" edge="1" parent="WIyWlLk6GJQsqaUBKTNV-1" source="dtS3Ds4gzJAj2oVXJS53-62" target="dtS3Ds4gzJAj2oVXJS53-75">
          <mxGeometry relative="1" as="geometry" />
        </mxCell>
        <mxCell id="dtS3Ds4gzJAj2oVXJS53-62" value="根据当前产品类型&lt;div&gt;赋予不同的属性&lt;/div&gt;" style="whiteSpace=wrap;html=1;rounded=1;" vertex="1" parent="WIyWlLk6GJQsqaUBKTNV-1">
          <mxGeometry x="160" y="1470" width="120" height="60" as="geometry" />
        </mxCell>
        <mxCell id="dtS3Ds4gzJAj2oVXJS53-68" value="" style="edgeStyle=orthogonalEdgeStyle;rounded=0;orthogonalLoop=1;jettySize=auto;html=1;fillColor=#e1d5e7;strokeColor=#9673a6;" edge="1" parent="WIyWlLk6GJQsqaUBKTNV-1" source="dtS3Ds4gzJAj2oVXJS53-66" target="dtS3Ds4gzJAj2oVXJS53-5">
          <mxGeometry relative="1" as="geometry" />
        </mxCell>
        <mxCell id="dtS3Ds4gzJAj2oVXJS53-79" style="edgeStyle=orthogonalEdgeStyle;rounded=0;orthogonalLoop=1;jettySize=auto;html=1;entryX=0;entryY=0.5;entryDx=0;entryDy=0;" edge="1" parent="WIyWlLk6GJQsqaUBKTNV-1" source="dtS3Ds4gzJAj2oVXJS53-66" target="dtS3Ds4gzJAj2oVXJS53-81">
          <mxGeometry relative="1" as="geometry">
            <mxPoint x="160" y="2110" as="targetPoint" />
            <Array as="points">
              <mxPoint x="20" y="600" />
              <mxPoint x="20" y="1700" />
            </Array>
          </mxGeometry>
        </mxCell>
        <mxCell id="dtS3Ds4gzJAj2oVXJS53-80" value="循环结束" style="edgeLabel;html=1;align=center;verticalAlign=middle;resizable=0;points=[];" vertex="1" connectable="0" parent="dtS3Ds4gzJAj2oVXJS53-79">
          <mxGeometry x="-0.1767" y="-1" relative="1" as="geometry">
            <mxPoint as="offset" />
          </mxGeometry>
        </mxCell>
        <mxCell id="dtS3Ds4gzJAj2oVXJS53-66" value="有产品" style="rhombus;whiteSpace=wrap;html=1;rounded=1;" vertex="1" parent="WIyWlLk6GJQsqaUBKTNV-1">
          <mxGeometry x="180" y="560" width="80" height="80" as="geometry" />
        </mxCell>
        <mxCell id="dtS3Ds4gzJAj2oVXJS53-87" value="" style="edgeStyle=orthogonalEdgeStyle;rounded=0;orthogonalLoop=1;jettySize=auto;html=1;fillColor=#e1d5e7;strokeColor=#9673a6;" edge="1" parent="WIyWlLk6GJQsqaUBKTNV-1" source="dtS3Ds4gzJAj2oVXJS53-69" target="dtS3Ds4gzJAj2oVXJS53-62">
          <mxGeometry relative="1" as="geometry" />
        </mxCell>
        <mxCell id="dtS3Ds4gzJAj2oVXJS53-69" value="设置退改规则&lt;div&gt;关联航班信息&lt;/div&gt;" style="whiteSpace=wrap;html=1;rounded=1;" vertex="1" parent="WIyWlLk6GJQsqaUBKTNV-1">
          <mxGeometry x="160" y="1370" width="120" height="60" as="geometry" />
        </mxCell>
        <mxCell id="dtS3Ds4gzJAj2oVXJS53-85" value="" style="edgeStyle=orthogonalEdgeStyle;rounded=0;orthogonalLoop=1;jettySize=auto;html=1;fillColor=#fff2cc;strokeColor=#d6b656;" edge="1" parent="WIyWlLk6GJQsqaUBKTNV-1" source="dtS3Ds4gzJAj2oVXJS53-75" target="dtS3Ds4gzJAj2oVXJS53-81">
          <mxGeometry relative="1" as="geometry" />
        </mxCell>
        <mxCell id="dtS3Ds4gzJAj2oVXJS53-95" style="edgeStyle=orthogonalEdgeStyle;rounded=0;orthogonalLoop=1;jettySize=auto;html=1;entryX=0.5;entryY=1;entryDx=0;entryDy=0;fillColor=#e1d5e7;strokeColor=#9673a6;" edge="1" parent="WIyWlLk6GJQsqaUBKTNV-1" source="dtS3Ds4gzJAj2oVXJS53-75" target="dtS3Ds4gzJAj2oVXJS53-93">
          <mxGeometry relative="1" as="geometry" />
        </mxCell>
        <mxCell id="dtS3Ds4gzJAj2oVXJS53-75" value="添加到报价信息集合" style="whiteSpace=wrap;html=1;rounded=1;" vertex="1" parent="WIyWlLk6GJQsqaUBKTNV-1">
          <mxGeometry x="160" y="1570" width="120" height="60" as="geometry" />
        </mxCell>
        <mxCell id="dtS3Ds4gzJAj2oVXJS53-84" value="" style="edgeStyle=orthogonalEdgeStyle;rounded=0;orthogonalLoop=1;jettySize=auto;html=1;" edge="1" parent="WIyWlLk6GJQsqaUBKTNV-1" source="dtS3Ds4gzJAj2oVXJS53-81" target="dtS3Ds4gzJAj2oVXJS53-83">
          <mxGeometry relative="1" as="geometry" />
        </mxCell>
        <mxCell id="dtS3Ds4gzJAj2oVXJS53-81" value="结束产品循环" style="whiteSpace=wrap;html=1;rounded=1;" vertex="1" parent="WIyWlLk6GJQsqaUBKTNV-1">
          <mxGeometry x="160" y="1670" width="120" height="60" as="geometry" />
        </mxCell>
        <mxCell id="dtS3Ds4gzJAj2oVXJS53-86" value="" style="edgeStyle=orthogonalEdgeStyle;rounded=0;orthogonalLoop=1;jettySize=auto;html=1;" edge="1" parent="WIyWlLk6GJQsqaUBKTNV-1" source="dtS3Ds4gzJAj2oVXJS53-83" target="dtS3Ds4gzJAj2oVXJS53-50">
          <mxGeometry relative="1" as="geometry" />
        </mxCell>
        <mxCell id="dtS3Ds4gzJAj2oVXJS53-83" value="结束航班循环" style="whiteSpace=wrap;html=1;rounded=1;" vertex="1" parent="WIyWlLk6GJQsqaUBKTNV-1">
          <mxGeometry x="160" y="1770" width="120" height="60" as="geometry" />
        </mxCell>
        <mxCell id="dtS3Ds4gzJAj2oVXJS53-96" style="edgeStyle=orthogonalEdgeStyle;rounded=0;orthogonalLoop=1;jettySize=auto;html=1;entryX=0.5;entryY=0;entryDx=0;entryDy=0;fillColor=#e1d5e7;strokeColor=#9673a6;" edge="1" parent="WIyWlLk6GJQsqaUBKTNV-1" source="dtS3Ds4gzJAj2oVXJS53-93" target="dtS3Ds4gzJAj2oVXJS53-66">
          <mxGeometry relative="1" as="geometry">
            <Array as="points">
              <mxPoint x="464" y="540" />
              <mxPoint x="220" y="540" />
            </Array>
          </mxGeometry>
        </mxCell>
        <mxCell id="dtS3Ds4gzJAj2oVXJS53-93" value="循环产品" style="rounded=1;whiteSpace=wrap;html=1;" vertex="1" parent="WIyWlLk6GJQsqaUBKTNV-1">
          <mxGeometry x="414" y="880" width="100" height="40" as="geometry" />
        </mxCell>
      </root>
    </mxGraphModel>
  </diagram>
</mxfile>
